<svg id="Capa_1" data-name="Capa 1" xmlns="http://www.w3.org/2000/svg" viewBox="0 0 21.33 21.33"><defs><style>.cls-1{fill:#2d6fb5;}.cls-2{fill:#fff;}</style></defs><rect class="cls-1" width="21.33" height="21.33" rx="3.22"/><path class="cls-2" d="M17.76,9.78A2.71,2.71,0,0,0,16.47,8V7.53a.58.58,0,0,0-.59-.59H14.52a.59.59,0,0,0-.59.59v.29a2.78,2.78,0,0,0-.59.37H8a2.79,2.79,0,0,0-.62-.38V7.53a.58.58,0,0,0-.59-.59H5.42a.58.58,0,0,0-.59.59V8a2.71,2.71,0,0,0-1.26,1.8,2.82,2.82,0,0,0,0,1h0c.31,1.45.85,3,.3,4.34h0a1.82,1.82,0,0,0-.07.25,1.47,1.47,0,1,0,2.88.57,1.15,1.15,0,0,0,0-.26h0a3.4,3.4,0,0,1,.85-2,1.42,1.42,0,0,0,.35.11,1.62,1.62,0,0,0,1.9-1.27,1.1,1.1,0,0,0,0-.18h2.08a1.61,1.61,0,0,0,1.3,1.45,1.66,1.66,0,0,0,.83,0,3.8,3.8,0,0,1,.65,1.9h0a2.28,2.28,0,0,0,0,.26,1.47,1.47,0,1,0,2.88-.57,1,1,0,0,0-.07-.25h0a6.59,6.59,0,0,1,.17-3.87A2.66,2.66,0,0,0,17.76,9.78Zm-11.19.87v.81a.43.43,0,1,1-.85,0v-.81H4.91a.43.43,0,0,1,0-.86h.81V9a.43.43,0,0,1,.85,0v.81h.81a.43.43,0,0,1,0,.86Zm2.68,1.77a1.07,1.07,0,0,1-1.05.86.75.75,0,0,1-.21,0A1.06,1.06,0,0,1,7.14,12a1.08,1.08,0,0,1,1-.87l.21,0A1.09,1.09,0,0,1,9.25,12.42Zm2-.61h-.81a.38.38,0,0,1,0-.76h.81a.38.38,0,0,1,0,.76Zm4-3.07a.52.52,0,0,1,.52.53.52.52,0,0,1-.52.52.52.52,0,0,1-.53-.52A.53.53,0,0,1,15.29,8.74Zm-.75,3.68a1.07,1.07,0,0,1-1,.86.75.75,0,0,1-.21,0A1.08,1.08,0,0,1,12.43,12a1.09,1.09,0,0,1,1.06-.87l.21,0a1.08,1.08,0,0,1,.68.46A1,1,0,0,1,14.54,12.42Zm-.25-1.64a.52.52,0,1,1,.53-.52A.52.52,0,0,1,14.29,10.78Zm1,1a.53.53,0,1,1,0-1,.53.53,0,0,1,0,1Zm1-1a.52.52,0,1,1,0-1,.52.52,0,1,1,0,1ZM11.6,8V7.19a.37.37,0,0,0-.37-.36h-.77a.36.36,0,0,0-.37.36V8Zm3.14-3h-3a.65.65,0,0,0-.65.65v1h-.49v-1a1.14,1.14,0,0,1,1.14-1.14h3Z"/></svg>