<svg id="Capa_1" data-name="Capa 1" xmlns="http://www.w3.org/2000/svg" viewBox="0 0 21.33 21.33"><defs><style>.cls-1{fill:#2d6fb5;}.cls-2{fill:#fff;}</style></defs><rect class="cls-1" width="21.33" height="21.33" rx="3.12"/><g id="_239_Clapboard_clapper_clapperboard_film_flap" data-name="239, Clapboard, clapper, clapperboard, film flap"><path class="cls-2" d="M16,8.41H7.27l8.7-2a.65.65,0,0,0,.42-.3.06.06,0,0,0,0,0,.58.58,0,0,0,0-.41l-.32-1.41a.66.66,0,0,0-.77-.48l-11,2.54a.64.64,0,0,0-.48.75l.33,1.41a.59.59,0,0,0,.09.2.66.66,0,0,0-.16.43v7a.68.68,0,0,0,.68.67H16a.67.67,0,0,0,.67-.67v-7A.67.67,0,0,0,16,8.41Zm-4.29,2.16L13.79,9h1.92l-2.1,1.62ZM9,10.57,11.05,9h1.86l-2.05,1.62Zm-2.73,0L8.32,9h1.86L8.12,10.57Zm-1.6,0V9.1A.14.14,0,0,1,4.8,9H7.42l-2,1.62h-.7ZM16.15,9.29v1.28H14.49Zm-8.4-3.2,2.36,1.13L8.3,7.63,5.94,6.5Zm2.65-.61,2.38,1.13L11,7,8.61,5.89Zm2.67-.6L15.49,6l-1.88.43L11.25,5.29Zm2.42-.57a.08.08,0,0,1,.09.07l.26,1.15-1.9-.87Zm-11,2.52.61-.13L7.42,7.82c-2.77.63-2.62.61-2.64.61s-.09,0-.09-.07l-.3-1.43A.11.11,0,0,1,4.45,6.83ZM6,16.26v-2.7h8.74v2.7Zm10,0h-.68v-3a.29.29,0,0,0-.29-.29H5.76a.29.29,0,0,0-.28.29v3H4.8a.14.14,0,0,1-.13-.13v-5H16.15v5A.14.14,0,0,1,16,16.26Z"/><path class="cls-2" d="M13.13,14.1H7.67a.29.29,0,0,0-.29.28v1.08a.29.29,0,0,0,.29.28h5.46a.29.29,0,0,0,.28-.28V14.38A.27.27,0,0,0,13.13,14.1ZM8,14.64H9.22v.54H8v-.54Zm1.81,0H11v.54H9.76v-.54Zm3.11.54H11.6v-.54h1.27Z"/><path class="cls-2" d="M8.21,11.93H6a.29.29,0,1,0,0,.57H8.21a.29.29,0,1,0,0-.57Z"/></g></svg>