<svg id="Capa_1" data-name="Capa 1" xmlns="http://www.w3.org/2000/svg" viewBox="0 0 21.33 21.33"><defs><style>.cls-1{fill:#2d6fb5;}.cls-2{fill:#fff;}</style></defs><rect class="cls-1" width="21.33" height="21.33" rx="3.05"/><g id="_1907_Class_Education_People_School_Students" data-name="1907, Class, Education, People, School, Students"><path class="cls-2" d="M16.89,4.22H8.68a.28.28,0,0,0,0,.56h8v7.86h-8a.28.28,0,1,0,0,.55h8.21a.28.28,0,0,0,.28-.27V4.5A.28.28,0,0,0,16.89,4.22Z"/><path class="cls-2" d="M6.77,12.62V11.26a.28.28,0,0,0-.56,0v1.36a.28.28,0,0,0,.56,0Z"/><path class="cls-2" d="M8.68,10.45A.29.29,0,0,0,9,10.17v-.8h2.47a.29.29,0,0,0,.28-.28V8a.29.29,0,0,0-.28-.28H8.32a2.33,2.33,0,0,0-.84-.59,1.63,1.63,0,1,0-2,0A2.43,2.43,0,0,0,4,9.37v.83a.28.28,0,0,0,.28.27h.79v2.17a.28.28,0,1,0,.56,0V9.37a.28.28,0,0,0-.56,0V9.9H4.58V9.37A1.93,1.93,0,0,1,8,8.18a.29.29,0,0,0,.22.1h2.92v.53H8.66a.28.28,0,0,0-.28.3c0,.09,0,.17,0,.24v.53H7.87V9.35a.28.28,0,0,0-.56,0V12.6a.28.28,0,0,0,.56,0V10.45ZM5.39,5.86a1.1,1.1,0,1,1,1.1,1.08A1.09,1.09,0,0,1,5.39,5.86Z"/><path class="cls-2" d="M9.22,11.81a.29.29,0,0,0,.28.28h5.76a.28.28,0,1,0,0-.56H9.5A.29.29,0,0,0,9.22,11.81Z"/><rect class="cls-2" x="9.78" y="5.58" width="0.54" height="0.53"/><rect class="cls-2" x="11.69" y="5.58" width="0.54" height="0.53"/><rect class="cls-2" x="13.61" y="5.58" width="0.54" height="0.53"/><path class="cls-2" d="M6.47,15.25a1,1,0,0,0,.3-.74,1.1,1.1,0,0,0-2.19,0,1,1,0,0,0,.3.74A1.59,1.59,0,0,0,4,16.68V17a.29.29,0,0,0,.28.28H7.05A.29.29,0,0,0,7.33,17v-.27A1.77,1.77,0,0,0,6.47,15.25Zm-1.36-.74a.54.54,0,1,1,.54.53A.53.53,0,0,1,5.11,14.51Zm-.53,2.17a1.1,1.1,0,0,1,2.19,0Z"/><path class="cls-2" d="M11.39,15.25a1,1,0,0,0,.3-.74,1.1,1.1,0,0,0-2.19,0,1,1,0,0,0,.3.74,1.61,1.61,0,0,0-.86,1.43V17a.29.29,0,0,0,.28.28H12a.29.29,0,0,0,.28-.28v-.27A1.68,1.68,0,0,0,11.39,15.25Zm-1.33-.74A.53.53,0,0,1,10.6,14a.53.53,0,0,1,0,1.06A.53.53,0,0,1,10.06,14.51ZM9.5,16.68a1.1,1.1,0,0,1,2.19,0Z"/><path class="cls-2" d="M16.31,15.25a1,1,0,0,0,.31-.74,1.1,1.1,0,0,0-2.2,0,1,1,0,0,0,.3.74,1.6,1.6,0,0,0-.83,1.43V17a.28.28,0,0,0,.27.28h2.73a.28.28,0,0,0,.28-.28v-.27A1.66,1.66,0,0,0,16.31,15.25ZM15,14.51a.54.54,0,1,1,.54.53A.52.52,0,0,1,15,14.51Zm-.56,2.17a1.1,1.1,0,0,1,2.2,0Z"/></g></svg>