<svg id="Capa_1" data-name="Capa 1" xmlns="http://www.w3.org/2000/svg" viewBox="0 0 21.33 21.33"><defs><style>.cls-1{fill:#2d6fb5;}.cls-2{fill:#fff;}</style></defs><rect class="cls-1" width="21.33" height="21.33" rx="2.88"/><path class="cls-2" d="M18,11.72c0-.13,0-.27,0-.41s0-.32-.07-.45-.46-.19-.7-.18c0-.36,0-.72,0-1.09s.08-.67-.07-.89-1-.32-1.41-.33a1.09,1.09,0,0,1,0-.18c-.08-.93-.59-1.08-1.48-1.09S13,7.45,12.88,8.41c-.06.76-.07,1.53-.09,2.3-.94.08-1.94,0-2.89,0s-1.62,0-2.43.05c0-.76,0-1.53-.09-2.28-.07-1-.32-1.32-1.31-1.31-.69,0-1.4.07-1.49.85l0,.42c-.43,0-1.1,0-1.35.29S3,10.18,3,10.65v0a1.44,1.44,0,0,0-.59.05c-.29.12-.18.61-.18.86s-.08.66.24.73a2.07,2.07,0,0,0,.5,0,7.29,7.29,0,0,0,.16,1.72c.17.66.8.66,1.42.67a2.26,2.26,0,0,1,0,.26c.08.83.53.89,1.27.9.47,0,1.21.17,1.49-.3a2.57,2.57,0,0,0,.13-1.07c0-.67,0-1.34,0-2v-.16c1.76,0,3.54.07,5.29,0,0,.6,0,1.2,0,1.79a4.34,4.34,0,0,0,.06,1.25c.22.63,1,.49,1.51.48s1.16,0,1.3-.69a3.55,3.55,0,0,0,.06-.47c.58,0,1.22,0,1.39-.64a5.91,5.91,0,0,0,.13-1.65,1.27,1.27,0,0,0,.59-.08C18,12.24,18,11.94,18,11.72ZM2.61,12a4.17,4.17,0,0,1,0-.5v-.29s0-.14,0-.15a2,2,0,0,1,.24,0H3c0,.31,0,.63,0,1A1.62,1.62,0,0,1,2.61,12Zm.88,1.79a5,5,0,0,1-.06-.87c0-.76-.06-1.52-.05-2.28a6.06,6.06,0,0,1,.06-1.41c.12-.51.62-.45,1.1-.46,0,.83.06,1.69,0,2.51,0,1-.08,2.09,0,3.12C4,14.4,3.64,14.44,3.49,13.8Zm3.62,1c0,.38,0,.66-.4.76a4.28,4.28,0,0,1-.8,0,1,1,0,0,1-1-.66,5,5,0,0,1,0-1.16c0-.82,0-1.64,0-2.47,0-.54,0-1.08,0-1.63s0-.85,0-1.28c0-.71.47-.87,1.12-.87A1.14,1.14,0,0,1,7,8,2.18,2.18,0,0,1,7,8.72c0,.42,0,.84,0,1.26,0,.81,0,1.61,0,2.42S7.16,14,7.11,14.82ZM7.48,12c0-.31,0-.62,0-.94.81,0,1.62,0,2.43,0s1.95.1,2.89,0c0,.31,0,.62,0,.93C11,12.1,9.24,12,7.48,12Zm7.85-2.41c0,.54,0,1.08,0,1.63,0,.77,0,1.54,0,2.31s.25,1.95-1,2a2.16,2.16,0,0,1-.76,0c-.54-.24-.44-.66-.45-1.1,0-.76,0-1.52,0-2.28s0-1.57.06-2.36-.23-2.33,1-2.32c.73,0,1,.25,1.13,1A6.31,6.31,0,0,1,15.33,9.62ZM16.82,13a4.3,4.3,0,0,1-.05.8c-.15.6-.53.57-1.06.58,0-.38,0-.77,0-1.13,0-.66,0-1.33,0-2,0-.84.05-1.68,0-2.52a3,3,0,0,1,.67.06c.4.11.4.15.44.6a16.23,16.23,0,0,1,0,1.71C16.83,11.73,16.84,12.36,16.82,13Zm.4-.93c0-.33,0-.66,0-1V11h.25c.12,0,.12,0,.16.07a.94.94,0,0,1,0,.29l0,.3a2.18,2.18,0,0,1,0,.25.26.26,0,0,0,0,.09h-.41Z"/><path class="cls-2" d="M5.32,8.37a2.72,2.72,0,0,0-.06,1.36c0,.22.38.23.35,0a2.56,2.56,0,0,1,.06-1.26C5.75,8.26,5.41,8.16,5.32,8.37Z"/><path class="cls-2" d="M5.81,7.84a.18.18,0,0,0,0,.36A.18.18,0,0,0,5.81,7.84Z"/><path class="cls-2" d="M13.62,8.21a1.37,1.37,0,0,0-.16.63,4,4,0,0,0,0,.77c0,.23.38.23.36,0a3.42,3.42,0,0,1,0-.64,1.14,1.14,0,0,1,.12-.58C14.07,8.21,13.76,8,13.62,8.21Z"/><path class="cls-2" d="M14.13,7.75a.18.18,0,0,0,0,.36A.18.18,0,0,0,14.13,7.75Z"/></svg>