<svg id="Capa_1" data-name="Capa 1" xmlns="http://www.w3.org/2000/svg" xmlns:xlink="http://www.w3.org/1999/xlink" viewBox="0 0 21.33 21.33"><defs><style>.cls-1,.cls-3{fill:#fff;}.cls-1,.cls-5,.cls-7{stroke:#fff;stroke-width:0.5px;}.cls-1,.cls-5{stroke-miterlimit:10;}.cls-2{fill:#2d6fb5;}.cls-4{clip-path:url(#clip-path);}.cls-5,.cls-7{fill:none;}.cls-6{clip-path:url(#clip-path-2);}.cls-7{stroke-linecap:round;stroke-linejoin:round;}</style><clipPath id="clip-path"><path class="cls-1" d="M11.3,8.92a3.89,3.89,0,1,0-2.46,5.67.6.6,0,0,1,.66.28l1.43,2.56a.59.59,0,0,0,.79.23h0a.6.6,0,0,0,.23-.8L10.52,14.3a.58.58,0,0,1,.1-.7A3.9,3.9,0,0,0,11.3,8.92Z"/></clipPath><clipPath id="clip-path-2"><path class="cls-1" d="M17.51,8.11a3.89,3.89,0,1,0-5.23,3.3.57.57,0,0,1,.38.6l-.26,2.92a.58.58,0,0,0,.53.63h0a.58.58,0,0,0,.63-.53l.27-2.91a.58.58,0,0,1,.49-.53A3.88,3.88,0,0,0,17.51,8.11Z"/></clipPath></defs><rect class="cls-2" width="21.33" height="21.33" rx="3.05"/><path class="cls-3" d="M11.3,8.92a3.89,3.89,0,1,0-2.46,5.67.6.6,0,0,1,.66.28l1.43,2.56a.59.59,0,0,0,.79.23h0a.6.6,0,0,0,.23-.8L10.52,14.3a.58.58,0,0,1,.1-.7A3.9,3.9,0,0,0,11.3,8.92Z"/><g class="cls-4"><path class="cls-1" d="M11.3,8.92a3.89,3.89,0,1,0-2.46,5.67.6.6,0,0,1,.66.28l1.43,2.56a.59.59,0,0,0,.79.23h0a.6.6,0,0,0,.23-.8L10.52,14.3a.58.58,0,0,1,.1-.7A3.9,3.9,0,0,0,11.3,8.92Z"/><rect class="cls-2" x="2.66" y="6.25" width="9.58" height="7.38" transform="translate(-3.9 4.9) rotate(-29.2)"/></g><path class="cls-5" d="M11.3,8.92a3.89,3.89,0,1,0-2.46,5.67.6.6,0,0,1,.66.28l1.43,2.56a.59.59,0,0,0,.79.23h0a.6.6,0,0,0,.23-.8L10.52,14.3a.58.58,0,0,1,.1-.7A3.9,3.9,0,0,0,11.3,8.92Z"/><path class="cls-3" d="M17.51,8.11a3.89,3.89,0,1,0-5.23,3.3.57.57,0,0,1,.38.6l-.26,2.92a.58.58,0,0,0,.53.63h0a.58.58,0,0,0,.63-.53l.27-2.91a.58.58,0,0,1,.49-.53A3.88,3.88,0,0,0,17.51,8.11Z"/><g class="cls-6"><path class="cls-1" d="M17.51,8.11a3.89,3.89,0,1,0-5.23,3.3.57.57,0,0,1,.38.6l-.26,2.92a.58.58,0,0,0,.53.63h0a.58.58,0,0,0,.63-.53l.27-2.91a.58.58,0,0,1,.49-.53A3.88,3.88,0,0,0,17.51,8.11Z"/><rect class="cls-2" x="8.97" y="3.09" width="9.58" height="7.38" transform="translate(0.67 -1.22) rotate(5.19)"/></g><path class="cls-5" d="M17.51,8.11a3.89,3.89,0,1,0-5.23,3.3.57.57,0,0,1,.38.6l-.26,2.92a.58.58,0,0,0,.53.63h0a.58.58,0,0,0,.63-.53l.27-2.91a.58.58,0,0,1,.49-.53A3.88,3.88,0,0,0,17.51,8.11Z"/><line class="cls-7" x1="15.39" y1="16.36" x2="14.21" y2="15.63"/><line class="cls-7" x1="13.87" y1="17.4" x2="13.48" y2="16.49"/><line class="cls-7" x1="15.63" y1="14.55" x2="14.64" y2="14.61"/></svg>