<svg id="Capa_1" data-name="Capa 1" xmlns="http://www.w3.org/2000/svg" viewBox="0 0 21.33 21.33"><defs><style>.cls-1{fill:#2d6fb5;}.cls-2{fill:#fff;}</style></defs><rect class="cls-1" width="21.33" height="21.33" rx="3.05"/><path class="cls-2" d="M14.41,10.65h1.64V10H14.52a4.36,4.36,0,0,1,.27-.74.55.55,0,0,0,.26-.43h0c0-.82-2.53-1.27-4.88-1.27S5.3,8,5.28,8.81h0a.55.55,0,0,0,.26.43,3.8,3.8,0,0,1,.37,1.32A3.33,3.33,0,0,0,8.45,13.3l-.34-.1L6.88,17.48l-.09,0-.26.93a.22.22,0,0,0,.15.26l.14,0a.22.22,0,0,0,.16,0,.26.26,0,0,0,.1-.13l.26-.93,0,0,.42-1.47H10v1.67h0l0,1a.21.21,0,0,0,.2.21h.15a.21.21,0,0,0,.15,0,.22.22,0,0,0,.06-.15l0-1h-.08V16.12h2.23L13,17.59l-.07,0,.27.93a.21.21,0,0,0,.1.13.21.21,0,0,0,.16,0l.13,0a.22.22,0,0,0,.15-.26l-.26-.93h-.07L12.21,13.2l-.17.05A3.31,3.31,0,0,0,14.41,10.65ZM5.49,8.83c0-.22.34-.44.93-.63l-.58,1C5.61,9.09,5.49,9,5.49,8.83Zm9,.38-.58-1c.59.19.93.41.93.63S14.72,9.09,14.49,9.21Zm-3.37.66L11,7.77l.49,0,.31,2ZM12,9.81l-.31-2,.48.05.5,1.86Zm.88-.12-.49-1.8.47.07.67,1.6Zm.86-.19L13.1,8l.52.12L14.3,9.3A4.14,4.14,0,0,1,13.73,9.5Zm-3-1.74.14,2.12-.64,0V7.75Zm-4.06.36L7.23,8,6.6,9.5A4.14,4.14,0,0,1,6,9.3ZM7.48,8,8,7.89l-.49,1.8-.65-.13Zm.69-.1.48-.05-.31,2-.67-.09Zm.69-.06.49,0-.14,2.1-.66,0Zm.7,0h.5V9.9l-.64,0ZM7.82,12.65c-.15-.08-.29-.19-.43-.28A4.35,4.35,0,0,1,7,12l-.17-.2c0-.06-.09-.14-.14-.2a3.29,3.29,0,0,1-.21-.42c0-.14-.11-.27-.14-.39s0-.25-.07-.35,0-.19,0-.27a.52.52,0,0,1,0-.23,1.31,1.31,0,0,0,0,.23,3.72,3.72,0,0,0,.17.58,3.59,3.59,0,0,0,.15.37c.08.12.14.25.24.38a1.1,1.1,0,0,0,.14.18l.16.18a2.88,2.88,0,0,0,.36.33,3.51,3.51,0,0,0,.4.27c.15.07.28.16.43.22l.41.17.39.11.17,0,.16,0,.26,0,.23.05H9.31l-.18,0L8.72,13l-.45-.14A4.54,4.54,0,0,1,7.82,12.65Zm4.73,3.26H10.38V13.54H10v2.37H7.77l.74-2.59a5.86,5.86,0,0,0,1.66.22,5.71,5.71,0,0,0,1.64-.22Z"/><path class="cls-2" d="M8.71,1.78h.06a1,1,0,0,1,.17,0A.77.77,0,0,1,9.18,2a.71.71,0,0,1,.19.34,1.33,1.33,0,0,1,0,.45,4,4,0,0,1-.06.47c-.07.32-.18.64-.28,1s-.2.63-.27.92a3.53,3.53,0,0,0-.06.42,1.38,1.38,0,0,0,0,.36,1.1,1.1,0,0,0,.12.29A1,1,0,0,0,9,6.31l.08.09a.67.67,0,0,0,.12.12l.05,0-.06,0A1,1,0,0,1,9,6.47L8.88,6.4a.5.5,0,0,1-.11-.1A1,1,0,0,1,8.54,6a1.5,1.5,0,0,1-.11-.44,2,2,0,0,1,0-.49,4.91,4.91,0,0,1,.1-.5c0-.16.09-.33.14-.49s.11-.32.16-.47.11-.31.16-.45.08-.29.11-.42a1.61,1.61,0,0,0,0-.37.84.84,0,0,0-.09-.28.55.55,0,0,0-.15-.18.76.76,0,0,0-.14-.1Z"/><path class="cls-2" d="M10,1.78h.06a.79.79,0,0,1,.17,0,.7.7,0,0,1,.25.16.8.8,0,0,1,.19.34,1.33,1.33,0,0,1,0,.45,2.67,2.67,0,0,1-.07.47c-.06.32-.18.64-.27,1a7.75,7.75,0,0,0-.27.92,2.23,2.23,0,0,0-.06.42,1.38,1.38,0,0,0,0,.36,1.1,1.1,0,0,0,.12.29l.07.11.08.09a1.21,1.21,0,0,0,.13.12l0,0-.06,0-.16-.07-.11-.07a.53.53,0,0,1-.12-.1A1,1,0,0,1,9.85,6a1.24,1.24,0,0,1-.12-.44,2,2,0,0,1,0-.49,4.8,4.8,0,0,1,.09-.5c0-.16.09-.33.14-.49s.11-.32.17-.47.11-.31.15-.45.09-.29.12-.42a1.58,1.58,0,0,0,0-.37.65.65,0,0,0-.08-.28.47.47,0,0,0-.16-.18.53.53,0,0,0-.14-.1Z"/><path class="cls-2" d="M11.36,1.78h.06a1,1,0,0,1,.17,0,.77.77,0,0,1,.24.16.71.71,0,0,1,.19.34,1.33,1.33,0,0,1,0,.45,4,4,0,0,1-.06.47c-.07.32-.18.64-.28,1s-.2.63-.27.92a3.53,3.53,0,0,0-.06.42,1.38,1.38,0,0,0,0,.36,1.1,1.1,0,0,0,.12.29,1,1,0,0,0,.08.11l.08.09a.67.67,0,0,0,.12.12l0,0-.06,0a1,1,0,0,1-.16-.07l-.12-.07a.5.5,0,0,1-.11-.1,1,1,0,0,1-.23-.3,1.5,1.5,0,0,1-.11-.44,2,2,0,0,1,0-.49,4.91,4.91,0,0,1,.1-.5c0-.16.09-.33.14-.49s.11-.32.16-.47.11-.31.16-.45.08-.29.11-.42a1.61,1.61,0,0,0,0-.37.84.84,0,0,0-.09-.28.55.55,0,0,0-.15-.18.76.76,0,0,0-.14-.1Z"/></svg>