<svg id="Capa_1" data-name="Capa 1" xmlns="http://www.w3.org/2000/svg" viewBox="0 0 21.33 21.33"><defs><style>.cls-1{fill:#2d6fb5;}.cls-2{fill:#fff;}</style></defs><rect class="cls-1" width="21.33" height="21.33" rx="2.88"/><path class="cls-2" d="M11.78,5.2c-1.57,0-2.25.76-2.55,2.34H6.06A1.8,1.8,0,0,1,8.18,5.87a1.9,1.9,0,0,1,1.15.35,2.21,2.21,0,0,1,.43-.61,2.63,2.63,0,0,0-1.58-.48c-2.81,0-3.11,1.91-3.11,6a.37.37,0,1,0,.74,0v-.32H9c0,.13,0,.26,0,.39a.34.34,0,1,0,.67,0c0-4.52.47-5.21,2.09-5.21S13.6,8.06,13.6,8.15a.33.33,0,1,0,.66,0C14.22,7.11,13.66,5.2,11.78,5.2Zm-2.65,3c0,.18,0,.36-.05.56H5.88c0-.2,0-.39.06-.56ZM5.82,10.06c0-.2,0-.38,0-.56H9.05c0,.18,0,.36,0,.56Z"/><path class="cls-2" d="M16.83,10.83a3.31,3.31,0,0,0-2,.62,1.89,1.89,0,0,1-1.12.38,1.79,1.79,0,0,1-1.05-.39,3.16,3.16,0,0,0-1.94-.61,3.45,3.45,0,0,0-2.32.81,1.49,1.49,0,0,1-.83.22,1.88,1.88,0,0,1-1.05-.39,3.13,3.13,0,0,0-1.94-.61A3.18,3.18,0,0,0,2,12l.69.47a2.43,2.43,0,0,1,2-.81,2.32,2.32,0,0,1,1.48.47,2.62,2.62,0,0,0,1.49.53h.07a2.25,2.25,0,0,0,1.07-.26.42.42,0,0,0,.2-.11,2.62,2.62,0,0,1,1.83-.66,2.26,2.26,0,0,1,1.48.48,4.91,4.91,0,0,0,.61.34,2.39,2.39,0,0,0,.87.18h.08a2.68,2.68,0,0,0,1.51-.51,2.54,2.54,0,0,1,1.52-.49,2.39,2.39,0,0,1,2,.91l.71-.46A3.25,3.25,0,0,0,16.83,10.83Z"/><path class="cls-2" d="M16.83,12.7a3.38,3.38,0,0,0-2,.61,1.9,1.9,0,0,1-1.12.39,1.79,1.79,0,0,1-1.05-.39,3.16,3.16,0,0,0-1.94-.61,3.45,3.45,0,0,0-2.32.81,1.41,1.41,0,0,1-.83.21,1.8,1.8,0,0,1-1.05-.38,3.07,3.07,0,0,0-1.94-.61A3.18,3.18,0,0,0,2,13.91l.69.47a2.43,2.43,0,0,1,2-.81A2.32,2.32,0,0,1,6.1,14a2.62,2.62,0,0,0,1.49.53h.07a2.25,2.25,0,0,0,1.07-.26.42.42,0,0,0,.2-.11,2.58,2.58,0,0,1,1.83-.66,2.32,2.32,0,0,1,1.48.47,3.91,3.91,0,0,0,.61.35,2.39,2.39,0,0,0,.87.18h.08A2.68,2.68,0,0,0,15.31,14a2.54,2.54,0,0,1,1.52-.49,2.36,2.36,0,0,1,2,.91l.71-.46A3.25,3.25,0,0,0,16.83,12.7Z"/><path class="cls-2" d="M16.83,14.57a3.38,3.38,0,0,0-2,.61,1.9,1.9,0,0,1-1.12.39,1.85,1.85,0,0,1-1.05-.39,3.16,3.16,0,0,0-1.94-.61,3.45,3.45,0,0,0-2.32.81,1.49,1.49,0,0,1-.83.21,1.8,1.8,0,0,1-1.05-.38,3.07,3.07,0,0,0-1.94-.61A3.18,3.18,0,0,0,2,15.78l.69.47a2.43,2.43,0,0,1,2-.81,2.32,2.32,0,0,1,1.48.47,2.62,2.62,0,0,0,1.49.53h.07a2.38,2.38,0,0,0,1.07-.26.42.42,0,0,0,.2-.11,2.58,2.58,0,0,1,1.83-.66,2.32,2.32,0,0,1,1.48.47,3.91,3.91,0,0,0,.61.35,2.39,2.39,0,0,0,.87.18h.08a2.68,2.68,0,0,0,1.51-.51,2.54,2.54,0,0,1,1.52-.49,2.36,2.36,0,0,1,2,.91l.71-.46A3.25,3.25,0,0,0,16.83,14.57Z"/></svg>