<svg id="Capa_1" data-name="Capa 1" xmlns="http://www.w3.org/2000/svg" viewBox="0 0 21.33 21.33"><defs><style>.cls-1{fill:#2d6fb5;}.cls-2{fill:#fff;}</style></defs><rect class="cls-1" width="21.33" height="21.33" rx="2.88"/><path class="cls-2" d="M10.6,14.05s-1.36.3-1.41,1,1.41,1.56,1.41,1.56,1.54-.91,1.53-1.61S10.6,14.05,10.6,14.05Z"/><path class="cls-2" d="M10.22,14.05S6.7,14,6.68,15.6A6.23,6.23,0,0,0,9,15.32S8.49,14.5,10.22,14.05Z"/><path class="cls-2" d="M4.11,15s1-1.36,4.86-1c0,0-2.24.3-2.52,1a5.06,5.06,0,0,1-2.34.05"/><path class="cls-2" d="M11.2,14.05s3.52-.05,3.53,1.55a6.25,6.25,0,0,1-2.29-.28S12.93,14.5,11.2,14.05Z"/><path class="cls-2" d="M17.31,15s-1-1.36-4.87-1c0,0,2.24.3,2.53,1a5.06,5.06,0,0,0,2.34.05"/><path class="cls-2" d="M14.51,9.4a9.41,9.41,0,0,1,1.86-.55,4.14,4.14,0,0,0,0-1.16A11.09,11.09,0,0,0,14.46,8,6.17,6.17,0,0,1,14.51,9.4Z"/><path class="cls-2" d="M4.92,7.69a4.12,4.12,0,0,0,0,1.15,9.62,9.62,0,0,1,1.79.52A6.52,6.52,0,0,1,6.72,8,11.22,11.22,0,0,0,4.92,7.69Z"/><path class="cls-2" d="M11.05,9.16a4.65,4.65,0,0,1,1.44-1.78,12.09,12.09,0,0,0-1.85-2.56A10.81,10.81,0,0,0,8.79,7.45a5,5,0,0,1,1.35,1.71,6.81,6.81,0,0,1,.4,1.15l.11,0A6.5,6.5,0,0,1,11.05,9.16Z"/><path class="cls-2" d="M10.37,10.46a.3.3,0,0,1,0-.1A7.71,7.71,0,0,0,10,9.25,4.54,4.54,0,0,0,8.69,7.64a.27.27,0,0,0-.08-.07l-.08-.06a4.55,4.55,0,0,0-1.29-.69,4,4,0,0,0-.29,1s0,.07,0,.1,0,.07,0,.1a6.2,6.2,0,0,0,0,1.38l.52.21a1.51,1.51,0,0,1,.28.15.33.33,0,0,1,.1.06l.1.06L8,10l.07.06.08.06c.17.14.33.29.49.45a.52.52,0,0,0,.1.11l.09.1A14.1,14.1,0,0,1,10.38,13a11.31,11.31,0,0,1,.11-1.9c0-.17-.06-.35-.1-.52A.44.44,0,0,0,10.37,10.46Z"/><path class="cls-2" d="M10.44,13.78a.65.65,0,0,1,0-.1.45.45,0,0,0,0-.11.71.71,0,0,0,0-.14,13.79,13.79,0,0,0-1.85-2.66l-.11-.12-.16-.15L8,10.29,8,10.23l0,0-.05,0-.09-.06L7.69,10a1.85,1.85,0,0,0-.37-.19L6.9,9.66l-.11,0-.1,0A9.61,9.61,0,0,0,4.9,9.05L4.8,9,4.7,9a11,11,0,0,0-1.21-.1s.78,2.8,2.29,3.9l.07,0h0l.06,0H6l0,0,0,0,0,0,0,0,0,0,0,0,0,0,0,0,0,0h0l0,0,0,0,0,0,0,0,0,0,0,0h0l0,0,.06,0h0l0,0,0,0H7l0,0h0l0,0h.1l.06,0h0l0,0H7.5l0,0H8.78l.19,0h1.46v-.1Z"/><path class="cls-2" d="M10.68,13.39c0-.06.07-.13.11-.2a12.08,12.08,0,0,1,2.31-3l.08-.07.08-.06a3,3,0,0,1,.63-.38l.41-.16a6.5,6.5,0,0,0,0-1.41s0-.07,0-.1,0-.07,0-.1a4.46,4.46,0,0,0-.3-1.06,4.62,4.62,0,0,0-1.19.62l-.08.06-.09.06a4.66,4.66,0,0,0-1.35,1.69,5.88,5.88,0,0,0-.36,1l0,.12a.43.43,0,0,0,0,.11,5.19,5.19,0,0,0-.13.64c0,.12,0,.24,0,.36s0,.42-.05.61a9.5,9.5,0,0,0,0,1.2s0,.08,0,.12,0,.11,0,.16l0-.07Z"/><path class="cls-2" d="M16.55,9l-.1,0-.1,0a9.32,9.32,0,0,0-1.86.57l-.11,0-.1,0L14,9.84a2.41,2.41,0,0,0-.59.35l-.08.06-.08.07a12,12,0,0,0-2.39,3.22l-.07.13h0l-.07.14,0,.06h1.67l.19,0h1.23l.06,0h.14l.05,0h0l.05,0h.1l0,0h.06l0,0h.05l0,0,.06,0h0l.05,0,0,0h.05l0,0,.05,0,0,0,.05,0,0,0,0,0h0l0,0,0,0,0,0,0,0,0,0,0,0,0,0,0,0,.05,0h0l.05,0h0l.07,0c1.51-1.1,2.29-3.9,2.29-3.9A11.41,11.41,0,0,0,16.55,9Z"/></svg>