<svg viewBox="0 0 23.97 23.97852" xmlns="http://www.w3.org/2000/svg" data-name="Capa 1" id="Capa_1" style="max-height: 500px" width="23.97" height="23.97852"><defs><style>.cls-1{fill:#2d6fb5;}.cls-2{font-size:3.98px;fill:#333679;font-family:Lato-Semibold, Lato;font-weight:600;}.cls-3{letter-spacing:-0.02em;}.cls-4{letter-spacing:-0.02em;}.cls-5{letter-spacing:-0.01em;}.cls-6{letter-spacing:0em;}.cls-7{fill:#fff;}</style></defs><rect rx="2.88" height="23.97" width="23.97" class="cls-1"/><text transform="translate(4.98 29.88)" class="cls-2"><tspan class="cls-3">E</tspan><tspan y="0" x="2.21" class="cls-4">v</tspan><tspan y="0" x="4.24">e</tspan><tspan y="0" x="6.35" class="cls-5">n</tspan><tspan y="0" x="8.56" class="cls-6">t</tspan><tspan y="0" x="10">os</tspan></text><g data-name="91, Group, Chat, Messages, Support, Arrow" id="_91_Group_Chat_Messages_Support_Arrow"><path d="M19.49,11.43H15.26V9.26l1.58,1a.32.32,0,0,0,.39,0,.36.36,0,0,0,.15-.36l-.26-1h.59a.38.38,0,0,0,.37-.37V4.05a.38.38,0,0,0-.37-.37h-7a.38.38,0,0,0-.37.37V7.57H5a.38.38,0,0,0-.37.37v6.31a.37.37,0,0,0,.37.36H5.6L5,16.28a.31.31,0,0,0,.14.39.36.36,0,0,0,.42,0l1.55-1.15v2.64a.38.38,0,0,0,.37.37H15l3.24,2a.39.39,0,0,0,.2.06.34.34,0,0,0,.33-.43l-.36-1.69h1.1a.37.37,0,0,0,.36-.36V11.8A.43.43,0,0,0,19.49,11.43ZM11,4.39h6.34V8.25h-.71a.37.37,0,0,0-.34.45l.14.53-1.21-.79v-.5a.37.37,0,0,0-.36-.37H11Zm-5,11,.34-1a.34.34,0,0,0-.34-.45H5.37V8.28h9.16v3.15h-7a.38.38,0,0,0-.37.37v2.81Zm13,2.37H18a.34.34,0,0,0-.34.42l.28,1.3-2.59-1.66a.39.39,0,0,0-.2-.06H7.85V12.13H19.12v5.64Z" class="cls-7"/><path d="M8.56,14.25a.36.36,0,0,0,.36.36H15.6a.37.37,0,0,0,.37-.36.38.38,0,0,0-.37-.37H8.92A.4.4,0,0,0,8.56,14.25Z" class="cls-7"/><path d="M8.92,15.66h3.89a.34.34,0,0,0,.34-.34.37.37,0,0,0-.34-.37H8.92a.37.37,0,0,0-.36.37A.37.37,0,0,0,8.92,15.66Z" class="cls-7"/><path d="M15.26,16H8.92a.37.37,0,0,0,0,.74h6.34a.37.37,0,0,0,0-.74Z" class="cls-7"/><path d="M16.3,16a.37.37,0,0,0,0,.74h1.75a.37.37,0,0,0,0-.74Z" class="cls-7"/><path d="M13.49,15.32a.35.35,0,0,0,.36.34h3.86a.37.37,0,0,0,.37-.34.38.38,0,0,0-.37-.37H13.85A.37.37,0,0,0,13.49,15.32Z" class="cls-7"/><path d="M6.44,9.68h6.68a.37.37,0,0,0,.37-.36A.35.35,0,0,0,13.12,9H6.44a.37.37,0,0,0-.36.34A.4.4,0,0,0,6.44,9.68Z" class="cls-7"/><path d="M10.33,10.36A.35.35,0,0,0,10,10H6.44a.37.37,0,0,0-.36.34.37.37,0,0,0,.36.37H10A.37.37,0,0,0,10.33,10.36Z" class="cls-7"/><path d="M12.08,5.8h1.75a.37.37,0,0,0,0-.74H12.08a.38.38,0,0,0-.37.37A.4.4,0,0,0,12.08,5.8Z" class="cls-7"/><path d="M15.6,6.5a.38.38,0,0,0-.37-.37H12.08a.37.37,0,0,0,0,.74h3.15A.36.36,0,0,0,15.6,6.5Z" class="cls-7"/><rect height="0.7" width="0.7" y="12.84" x="8.92" class="cls-7"/><rect height="0.7" width="0.7" y="12.84" x="9.97" class="cls-7"/><rect height="0.7" width="0.7" y="12.84" x="11.04" class="cls-7"/><rect height="0.7" width="0.7" y="12.84" x="12.08" class="cls-7"/><rect height="0.7" width="0.7" y="12.84" x="13.15" class="cls-7"/><path d="M4.87,18.47a.88.88,0,1,0,0,1.75.88.88,0,0,0,0-1.75Zm0,1.07a.17.17,0,1,1,0-.33.17.17,0,1,1,0,.33Z" class="cls-7"/><path d="M7.52,6.5a1.06,1.06,0,0,0,0-2.11,1.06,1.06,0,1,0,0,2.11Zm0-1.41a.37.37,0,0,1,.36.37.37.37,0,0,1-.73,0A.38.38,0,0,1,7.52,5.09Z" class="cls-7"/></g></svg>