<svg id="Capa_1" data-name="Capa 1" xmlns="http://www.w3.org/2000/svg" viewBox="0 0 23.97 23.97"><defs><style>.cls-1{fill:#2d6fb5;}.cls-2{fill:#fff;}</style></defs><rect class="cls-1" width="23.97" height="23.97" rx="3.12"/><path class="cls-2" d="M8.68,12.18h1V15.3a.17.17,0,0,0,.17.17h.87a.17.17,0,0,0,.18-.17V10.53a.18.18,0,0,0-.18-.17H10a.18.18,0,0,0-.17.17.44.44,0,0,1,0,.14.67.67,0,0,1-.14.28.78.78,0,0,1-.37.2,4.59,4.59,0,0,1-.59,0,.17.17,0,0,0-.17.17V12A.18.18,0,0,0,8.68,12.18Zm.17-.65a3.54,3.54,0,0,0,.49,0,1,1,0,0,0,.54-.3,1,1,0,0,0,.23-.41.19.19,0,0,1,0-.07h.42v4.43H10V12a.16.16,0,0,0-.17-.17h-1Z"/><path class="cls-2" d="M11.91,15.11a1.83,1.83,0,0,0,1.22.4,1.68,1.68,0,0,0,1.4-.58A2,2,0,0,0,15,13.65a1.65,1.65,0,0,0-.49-1.29,1.69,1.69,0,0,0-1.15-.44,1.51,1.51,0,0,0-.55.09l-.08,0,0-.55h1.56a.17.17,0,0,0,.17-.17v-.8a.17.17,0,0,0-.17-.17H11.77a.17.17,0,0,0-.17.16l-.18,2.63a.13.13,0,0,0,0,.12.14.14,0,0,0,.12.06l.93,0a.17.17,0,0,0,.16-.09.45.45,0,0,1,.24-.21.78.78,0,0,1,.24,0,.44.44,0,0,1,.39.17.94.94,0,0,1,.14.52.81.81,0,0,1-.15.51.54.54,0,0,1-.73.07.78.78,0,0,1-.17-.39.16.16,0,0,0-.16-.14h-.94a.16.16,0,0,0-.12.06.19.19,0,0,0-.05.13A1.58,1.58,0,0,0,11.91,15.11Zm.42-1a1,1,0,0,0,.22.41.88.88,0,0,0,1.25-.09,1.12,1.12,0,0,0,.22-.72,1.28,1.28,0,0,0-.2-.71.77.77,0,0,0-.67-.33,1,1,0,0,0-.36.06.75.75,0,0,0-.36.27l-.66,0,.16-2.3h2.22v.46H12.61a.16.16,0,0,0-.17.15l-.09,1a.18.18,0,0,0,.08.16.15.15,0,0,0,.18,0,1.77,1.77,0,0,1,.31-.17,1.31,1.31,0,0,1,.43-.06,1.26,1.26,0,0,1,1.3,1.38,1.69,1.69,0,0,1-.38,1.07,1.4,1.4,0,0,1-1.14.45,1.48,1.48,0,0,1-1-.32,1.13,1.13,0,0,1-.4-.73Z"/><path class="cls-2" d="M16.91,5.59h-.42l-.11,0V4.21a.84.84,0,1,0-1.68,0V5.6H8.79V4.21a.85.85,0,1,0-1.69,0v1.4L7,5.59H6.6A1.46,1.46,0,0,0,5.14,7.05v9.26A1.47,1.47,0,0,0,6.6,17.77H16.91a1.46,1.46,0,0,0,1.45-1.46V7.05A1.45,1.45,0,0,0,16.91,5.59ZM15.17,4.21a.36.36,0,0,1,.37-.37.37.37,0,0,1,.37.37V6.75a.38.38,0,0,1-.37.37.37.37,0,0,1-.37-.37Zm-7.59,0A.36.36,0,0,1,8,3.84a.37.37,0,0,1,.37.37V6.75A.38.38,0,0,1,8,7.12a.37.37,0,0,1-.37-.37Zm10.27,12.1a1,1,0,0,1-.94.94H6.6a.94.94,0,0,1-.94-.94V7.05a1,1,0,0,1,.94-1h.16v.51a1.18,1.18,0,0,0,2.35,0V6.1h5.28v.51a1.18,1.18,0,0,0,2.35,0V6.1h.17a1,1,0,0,1,.94,1Z"/><path class="cls-2" d="M17.1,9.28H6.45a.26.26,0,0,0-.26.26v6.3a.89.89,0,0,0,.88.88h9.4a.89.89,0,0,0,.89-.88V9.54A.26.26,0,0,0,17.1,9.28Zm-.26,6.56a.37.37,0,0,1-.37.37H7.07a.38.38,0,0,1-.37-.37v-6H16.84Z"/></svg>