<svg id="Capa_1" data-name="Capa 1" xmlns="http://www.w3.org/2000/svg" viewBox="0 0 23.97 23.97"><defs><style>.cls-1{fill:#2d6fb5;}.cls-2{fill:#fff;}</style></defs><path class="cls-1" d="M3.08,24A3.08,3.08,0,0,1,0,20.89V3.08A3.08,3.08,0,0,1,3.08,0H20.89A3.08,3.08,0,0,1,24,3.08V20.89A3.08,3.08,0,0,1,20.89,24"/><path class="cls-2" d="M17.77,7.58a3.23,3.23,0,0,0-1,.11c-.34-.84-.71-1.67-1.12-2.47a4.28,4.28,0,0,0-1.05-1.65c-.68-.46-1.46.31-1.89.78-1.83,2-3.49,4.12-5.94,5.41,0,0,0,0-.06.05-.69.21-1.38.42-2.07.65a4.09,4.09,0,0,0-1.4.57c-.63.56-.21,1.77,0,2.4s.77,1.81,1.47,2a1.29,1.29,0,0,0,.64,0c.42.86.79,1.75,1.27,2.58.31.53.62,1.24,1.34,1s1.7-1,1.47-1.9a4.25,4.25,0,0,0-.78-1.15A8.37,8.37,0,0,1,8,14.66l.34-.1a13.74,13.74,0,0,1,4.24-.26c1.28.14,2.52.48,3.77.74.61.13,1.78.62,2.21-.13s-.14-2.18-.34-2.94c-.13-.51-.28-1-.44-1.53a2.26,2.26,0,0,0,.94-.84,1.55,1.55,0,0,0-.17-1.24C18.37,8,18.16,7.64,17.77,7.58ZM4.33,14.3a4.82,4.82,0,0,1-.51-.92,4.28,4.28,0,0,1-.3-1c-.14-.75.28-1.08.92-1.29s1.56-.51,2.35-.76q.6,1.89,1.26,3.75c-.7.22-1.4.43-2.11.61S4.78,14.93,4.33,14.3Zm4.19,2.09c.07.1.18.22.24.31a1,1,0,0,1-.1,1.39,2.3,2.3,0,0,1-.52.36,1.33,1.33,0,0,1-.38.12A1.92,1.92,0,0,0,8,18.16c.08-.24-.31-.34-.39-.1a1.26,1.26,0,0,1-.16.33l-.05-.05-.11-.12a0,0,0,0,0,0,0c0-.08.09-.16.13-.24s.09-.2.13-.3-.31-.35-.39-.11a2.59,2.59,0,0,1-.14.29l-.15-.29h0l.27-.6A.2.2,0,0,0,7,16.67a.19.19,0,0,0-.27.07l-.16.34a1.63,1.63,0,0,0-.11-.23.37.37,0,0,0,0-.11l0,0,.27-.46a.2.2,0,0,0-.35-.2l-.16.28L6.1,16l0,0c.08-.1.15-.21.23-.32a.21.21,0,0,0-.07-.27.21.21,0,0,0-.28.07c0,.06-.08.11-.11.16a2.59,2.59,0,0,1-.14-.29l.32-.1c.5-.12,1-.27,1.5-.42A8.32,8.32,0,0,0,8.52,16.39Zm7.38-2a28.92,28.92,0,0,0-3.46-.66,14.49,14.49,0,0,0-4,.24q-.67-1.9-1.29-3.84a20.6,20.6,0,0,0,5.53-5,7.61,7.61,0,0,1,.81-.92,25.19,25.19,0,0,1,2.2,4.78,30.41,30.41,0,0,1,1.66,5.69A10.16,10.16,0,0,1,15.9,14.41Zm2.22-.17a.49.49,0,0,1-.38.48A29.33,29.33,0,0,0,16,8.82a26.36,26.36,0,0,0-2.2-4.76.53.53,0,0,1,.52,0c.23.13.42.64.54.86a27.81,27.81,0,0,1,1.44,3.14A33.85,33.85,0,0,1,17.64,12,8.08,8.08,0,0,1,18.12,14.24Zm.12-4.67a2.1,2.1,0,0,1-.61.48q-.33-1-.72-2L17.39,8c.39,0,.54.07.73.43S18.49,9.21,18.24,9.57Z"/><path class="cls-2" d="M17.88,6.39V5.25a.2.2,0,0,0-.4,0V6.39A.2.2,0,0,0,17.88,6.39Z"/><path class="cls-2" d="M19.51,7.16l.62-.69c.17-.19-.11-.47-.28-.28l-.63.68C19.05,7.06,19.33,7.35,19.51,7.16Z"/><path class="cls-2" d="M20.88,8.46l-.89,0c-.26,0-.26.39,0,.4l.89,0C21.13,8.88,21.13,8.48,20.88,8.46Z"/><path class="cls-2" d="M19.37,10.28c-.21-.15-.41.2-.2.35a6.94,6.94,0,0,1,.72.6c.19.17.48-.11.29-.28A10.28,10.28,0,0,0,19.37,10.28Z"/><path class="cls-2" d="M5.06,12.17c.24-.09.13-.48-.11-.39l-.8.32c-.24.09-.14.47.1.38Z"/><path class="cls-2" d="M5.17,12.44a5.47,5.47,0,0,1-.85.32.2.2,0,0,0,.11.39,6.33,6.33,0,0,0,.94-.37C5.6,12.67,5.4,12.33,5.17,12.44Z"/></svg>