<svg id="Capa_1" data-name="Capa 1" xmlns="http://www.w3.org/2000/svg" viewBox="0 0 23.97 23.97"><defs><style>.cls-1{fill:#2d6fb5;}.cls-2{fill:#fff;}.cls-3{fill:#1b5e97;}</style></defs><path class="cls-1" d="M2.91,24A2.91,2.91,0,0,1,0,21.06V2.91A2.91,2.91,0,0,1,2.91,0H21.06A2.91,2.91,0,0,1,24,2.91V21.06A2.91,2.91,0,0,1,21.06,24"/><path class="cls-2" d="M18,16.62c-.16-1.05-.29-1.44-1.74-1.61a9.42,9.42,0,0,1-2.61-.54c-.56-.31-.47-1.91-.47-1.91h-3s.09,1.6-.47,1.91A9.35,9.35,0,0,1,7,15c-1.46.17-1.59.56-1.75,1.61a15.67,15.67,0,0,0-.13,2H18.1A15.67,15.67,0,0,0,18,16.62Z"/><path class="cls-3" d="M18.1,18.81H5.16A.24.24,0,0,1,5,18.74a.23.23,0,0,1-.06-.16,15.53,15.53,0,0,1,.13-2c.18-1.16.39-1.62,1.94-1.8h.11a9.06,9.06,0,0,0,2.41-.5c.3-.17.39-1.1.36-1.7a.25.25,0,0,1,.06-.17.24.24,0,0,1,.16-.07h3a.24.24,0,0,1,.16.07.18.18,0,0,1,.06.17c0,.6.06,1.53.36,1.7a9.13,9.13,0,0,0,2.42.5h.1c1.55.18,1.76.64,1.94,1.8a16.39,16.39,0,0,1,.14,2,.24.24,0,0,1-.23.23ZM5.38,18.36h12.5a15.42,15.42,0,0,0-.13-1.7c-.14-.95-.19-1.27-1.55-1.43h-.1a9.27,9.27,0,0,1-2.59-.55c-.53-.31-.59-1.37-.59-1.88H10.34c0,.51-.05,1.57-.59,1.88a9.2,9.2,0,0,1-2.58.55H7.06c-1.36.16-1.4.48-1.55,1.43A15.42,15.42,0,0,0,5.38,18.36Z"/><path class="cls-2" d="M15.06,8.59H15c0-.23.06-.46.08-.68.15-1.12.48-4.41-3.44-4.41S8,6.79,8.19,7.91c0,.22.06.45.08.68H8.21c-.6-.44-.65.71-.4,1.1a2.53,2.53,0,0,1,.33.73c.09.26.25.29.37.27,0,.15,0,.29,0,.4.06.6,1.52,1.82,1.84,2.2s.83.21,1,.21h.5c.16,0,.68.14,1-.21s1.78-1.6,1.84-2.2c0-.11,0-.25,0-.4.13,0,.28,0,.37-.27a2.53,2.53,0,0,1,.33-.73C15.7,9.3,15.65,8.15,15.06,8.59Z"/><path class="cls-3" d="M12.26,13.75l-.31,0h-.64l-.31,0a1,1,0,0,1-.77-.32L9.82,13C9,12.27,8.38,11.6,8.33,11.11a1.83,1.83,0,0,0,0-.21.6.6,0,0,1-.38-.41l0-.08a2.07,2.07,0,0,0-.29-.6,1.51,1.51,0,0,1-.06-1.28A.46.46,0,0,1,8,8.27c0-.11,0-.22,0-.33a4.61,4.61,0,0,1,.72-3.57,3.72,3.72,0,0,1,2.94-1.09,3.72,3.72,0,0,1,2.94,1.09,4.63,4.63,0,0,1,.73,3.57c0,.11,0,.22-.05.33a.45.45,0,0,1,.45.26,1.48,1.48,0,0,1-.06,1.28,2,2,0,0,0-.28.6l0,.08a.58.58,0,0,1-.38.41c0,.08,0,.15,0,.21,0,.49-.7,1.16-1.49,1.92l-.4.4A1,1,0,0,1,12.26,13.75Zm-.63-.49h0l.25,0H12l.25,0a.53.53,0,0,0,.44-.17c.09-.1.24-.25.44-.43.46-.45,1.31-1.27,1.35-1.64,0-.11,0-.25,0-.41a.19.19,0,0,1,.09-.15.23.23,0,0,1,.18,0h0s.08-.11.09-.13l0-.07a2.17,2.17,0,0,1,.33-.69,1.05,1.05,0,0,0,0-.87l-.1.06a.22.22,0,0,1-.13,0H15a.26.26,0,0,1-.17-.07.23.23,0,0,1-.05-.18c0-.23.06-.46.08-.68a4.18,4.18,0,0,0-.61-3.22,3.31,3.31,0,0,0-2.61-.93A3.32,3.32,0,0,0,9,4.66a4.23,4.23,0,0,0-.61,3.22c0,.22.06.45.08.68a.23.23,0,0,1-.05.18.24.24,0,0,1-.17.07H8.21a.23.23,0,0,1-.14,0C8,8.71,8,8.71,8,8.71a1.06,1.06,0,0,0,0,.87,2.71,2.71,0,0,1,.33.69l0,.07s.05.13.09.13h0a.21.21,0,0,1,.17,0,.2.2,0,0,1,.1.15c0,.16,0,.3,0,.41,0,.37.89,1.19,1.35,1.64.19.18.34.33.43.43a.53.53,0,0,0,.44.17l.26,0h.12l.24,0Z"/><path class="cls-2" d="M14.28,3.5a1.57,1.57,0,0,0-1.23-.16h0A2.26,2.26,0,0,0,11,2.87c-1.75.24-1.92.63-2.57.48A4.19,4.19,0,0,0,8,4.49a7.15,7.15,0,0,0,.24,3.95c.15.61.3,1,.3,1a10.25,10.25,0,0,1,.17-3,1.33,1.33,0,0,1,1.87-.66,1.58,1.58,0,0,0,1.05.33,1.58,1.58,0,0,0,1-.33,1.31,1.31,0,0,1,1.66.31l.16.23.06.12a10.15,10.15,0,0,1,.16,3,10.57,10.57,0,0,0,.49-2.07h0C15.67,4.7,15,3.84,14.28,3.5Z"/><path class="cls-2" d="M8.54,9.7a.24.24,0,0,1-.21-.15S8.17,9.1,8,8.49a7.54,7.54,0,0,1-.24-4,4.77,4.77,0,0,1,.44-1.2.22.22,0,0,1,.25-.1A1.35,1.35,0,0,0,9.26,3,9.08,9.08,0,0,1,11,2.65c.21,0,.42,0,.61,0a2.3,2.3,0,0,1,1.54.48,1.7,1.7,0,0,1,.27,0,2.46,2.46,0,0,1,1,.24c1.12.5,1.46,1.81,1.06,4.14a10.89,10.89,0,0,1-.5,2.11.23.23,0,0,1-.26.15.24.24,0,0,1-.17-.24,10,10,0,0,0-.15-2.9l0-.09-.14-.2a1.28,1.28,0,0,0-.93-.41.59.59,0,0,0-.41.12,1.69,1.69,0,0,1-1.13.39h-.13A1.72,1.72,0,0,1,10.43,6,.59.59,0,0,0,10,5.86a1.2,1.2,0,0,0-1.11.7,9.79,9.79,0,0,0-.15,2.86.13.13,0,0,1,0,.06.22.22,0,0,1-.22.22Zm0-6.1a3.9,3.9,0,0,0-.32.93,6.9,6.9,0,0,0,.07,3.29A4.73,4.73,0,0,1,8.5,6.4a1.65,1.65,0,0,1,1.52-1,1,1,0,0,1,.72.25,1.29,1.29,0,0,0,.83.27h.13a1.29,1.29,0,0,0,.83-.27,1,1,0,0,1,.71-.25A1.69,1.69,0,0,1,14.51,6l0,0,.15.22v0a1,1,0,0,1,.07.15A3.93,3.93,0,0,1,15,7.59a.76.76,0,0,0,0-.21c.47-2.77-.23-3.42-.8-3.67a2,2,0,0,0-.81-.2.89.89,0,0,0-.23,0l-.07,0a.22.22,0,0,1-.2-.07,1.71,1.71,0,0,0-1.31-.44,5.48,5.48,0,0,0-.55,0,9,9,0,0,0-1.63.37A2,2,0,0,1,8.54,3.6Z"/><path class="cls-1" d="M12.38,12.52a.23.23,0,1,1,0-.45,3.18,3.18,0,0,0,2.47-.83,2,2,0,0,0,.48-1.44.22.22,0,0,1,.19-.24.21.21,0,0,1,.25.19,2.38,2.38,0,0,1-.58,1.78A3.62,3.62,0,0,1,12.38,12.52Z"/><path class="cls-2" d="M16.21,9.08c0-.81-.33-1.48-.75-1.48h-.27v.09a1.72,1.72,0,0,0-.56,1.39,1.75,1.75,0,0,0,.56,1.4v.09h.27C15.88,10.56,16.21,9.9,16.21,9.08Z"/><path class="cls-3" d="M15.46,10.79h-.27a.21.21,0,0,1-.22-.2,2.06,2.06,0,0,1-.56-1.51A2.05,2.05,0,0,1,15,7.58a.21.21,0,0,1,.22-.2h.29c.55,0,1,.75,1,1.7s-.41,1.69-1,1.71Zm-.09-.44h.09c.22,0,.53-.49.53-1.27s-.31-1.26-.53-1.26h-.09l-.06,0a1.54,1.54,0,0,0-.46,1.21,1.51,1.51,0,0,0,.46,1.21Z"/><path class="cls-2" d="M15.48,10.26a.33.33,0,0,1-.28.35h-.29a.33.33,0,0,1-.28-.35V7.91a.33.33,0,0,1,.28-.35h.29a.33.33,0,0,1,.28.35Z"/><path class="cls-3" d="M15.2,10.83h-.29a.55.55,0,0,1-.5-.57V7.91a.55.55,0,0,1,.5-.57h.29a.55.55,0,0,1,.5.57v2.35A.55.55,0,0,1,15.2,10.83Zm-.29-3a.15.15,0,0,0-.06.13v2.35a.13.13,0,0,0,.06.12h.29a.13.13,0,0,0,.06-.12V7.91a.15.15,0,0,0-.06-.13Z"/><path class="cls-2" d="M7.05,9.08c0-.81.34-1.48.75-1.48h.28v.09a1.75,1.75,0,0,1,.55,1.39,1.78,1.78,0,0,1-.55,1.4v.09H7.8C7.39,10.56,7.05,9.9,7.05,9.08Z"/><path class="cls-3" d="M8.08,10.79h-.3c-.55,0-1-.75-1-1.71s.4-1.68,1-1.7h.3a.23.23,0,0,1,.22.2,2.09,2.09,0,0,1,.55,1.5,2.1,2.1,0,0,1-.55,1.51A.23.23,0,0,1,8.08,10.79Zm-.26-.44H7.9l0-.06a1.51,1.51,0,0,0,.46-1.21A1.54,1.54,0,0,0,8,7.87a.12.12,0,0,1,0,0H7.81c-.23,0-.54.49-.54,1.26s.31,1.26.54,1.27Z"/><path class="cls-2" d="M7.78,10.26a.33.33,0,0,0,.29.35h.28a.33.33,0,0,0,.28-.35V7.91a.33.33,0,0,0-.28-.35H8.07a.33.33,0,0,0-.29.35Z"/><path class="cls-3" d="M8.35,10.83H8.07a.55.55,0,0,1-.51-.57V7.91a.55.55,0,0,1,.51-.57h.28a.54.54,0,0,1,.5.57v2.35A.54.54,0,0,1,8.35,10.83Zm-.28-3S8,7.83,8,7.91v2.35c0,.08,0,.12.06.12h.28a.13.13,0,0,0,.06-.12V7.91a.15.15,0,0,0-.06-.13Z"/><path class="cls-3" d="M15.46,7.94a.22.22,0,0,1-.22-.22,3.7,3.7,0,0,0-3.61-3.78A3.7,3.7,0,0,0,8,7.72a.22.22,0,0,1-.44,0A4.14,4.14,0,0,1,11.63,3.5a4.14,4.14,0,0,1,4,4.22A.22.22,0,0,1,15.46,7.94Z"/><rect class="cls-2" x="11.38" y="11.98" width="1.65" height="0.62" rx="0.3"/><path class="cls-1" d="M12.73,12.83h-1a.54.54,0,0,1,0-1.07h1a.54.54,0,0,1,0,1.07Zm-1-.62a.08.08,0,0,0-.09.08.09.09,0,0,0,.09.09h1a.09.09,0,0,0,.08-.08.08.08,0,0,0-.08-.09Z"/><path class="cls-2" d="M11.6,14.61,10,13.92h0a.86.86,0,0,1-.35.55A9.35,9.35,0,0,1,7,15c-1.46.17-1.59.56-1.75,1.61a15.67,15.67,0,0,0-.13,2H18.1a15.67,15.67,0,0,0-.13-2c-.16-1.05-.29-1.44-1.74-1.61a9.42,9.42,0,0,1-2.61-.54.9.9,0,0,1-.35-.55h0Z"/><path class="cls-3" d="M18.11,18.81H5.16A.24.24,0,0,1,5,18.74a.23.23,0,0,1-.06-.16,15.53,15.53,0,0,1,.13-2c.18-1.16.39-1.62,1.94-1.8h.11a9.06,9.06,0,0,0,2.41-.5.7.7,0,0,0,.25-.42.22.22,0,0,1,.3-.15l1.52.66,1.59-.66a.22.22,0,0,1,.21,0,.3.3,0,0,1,.09.13.7.7,0,0,0,.24.42,9.13,9.13,0,0,0,2.42.5h.1c1.55.18,1.76.64,1.94,1.8a17.16,17.16,0,0,1,.14,1.95v.05A.22.22,0,0,1,18.11,18.81ZM5.38,18.36h12.5a15.42,15.42,0,0,0-.13-1.7c-.14-.95-.19-1.27-1.55-1.43h-.1a9.27,9.27,0,0,1-2.59-.55,1,1,0,0,1-.37-.46l-1.45.61a.28.28,0,0,1-.18,0l-1.39-.6a.89.89,0,0,1-.37.45,9.2,9.2,0,0,1-2.58.55H7.06c-1.36.16-1.4.48-1.55,1.43A15.42,15.42,0,0,0,5.38,18.36Z"/><polygon class="cls-2" points="11.71 15.47 11.63 15.36 11.55 15.47 10.78 18.45 11.22 18.59 11.63 18.59 12.04 18.59 12.48 18.45 11.71 15.47"/><path class="cls-3" d="M12,18.81h-.88l-.45-.14a.22.22,0,0,1-.15-.27l.78-3,0-.08.08-.11a.21.21,0,0,1,.18-.09h0a.21.21,0,0,1,.18.09l.08.11a.11.11,0,0,1,0,.08l.78,3a.22.22,0,0,1-.15.27l-.44.14Zm-.78-.45H12l.21-.06-.59-2.25-.58,2.25Z"/><path class="cls-2" d="M8.63,14.78h0C8,14.9,7.37,15,7,15c-1.46.17-1.59.56-1.75,1.61a15.67,15.67,0,0,0-.13,2h6.06Z"/><path class="cls-3" d="M11.22,18.81H5.16A.24.24,0,0,1,5,18.74a.23.23,0,0,1-.06-.16,15.53,15.53,0,0,1,.13-2c.18-1.16.39-1.62,1.94-1.8h.1c.35,0,.94-.11,1.48-.21a.2.2,0,0,1,.22.09l2.59,3.8a.21.21,0,0,1,0,.23A.24.24,0,0,1,11.22,18.81Zm-5.84-.45H10.8L8.53,15c-.51.09-1,.15-1.37.19h-.1c-1.36.16-1.4.48-1.55,1.43A15.42,15.42,0,0,0,5.38,18.36Z"/><path class="cls-2" d="M18.1,18.59a15.67,15.67,0,0,0-.13-2c-.16-1.05-.29-1.44-1.74-1.61-.33,0-1-.11-1.6-.23h0L12,18.59Z"/><path class="cls-3" d="M18.1,18.81H12a.23.23,0,0,1-.18-.35l2.59-3.8a.21.21,0,0,1,.23-.09c.53.1,1.12.17,1.47.21h.1c1.55.18,1.76.64,1.94,1.8a16.39,16.39,0,0,1,.14,2,.24.24,0,0,1-.23.23Zm-5.64-.45h5.42a15.42,15.42,0,0,0-.13-1.7c-.14-.95-.19-1.27-1.55-1.43h-.1c-.33,0-.85-.1-1.37-.19Z"/><polygon class="cls-2" points="11.08 15.15 11.6 15.7 12.21 15.15 11.6 14.61 11.08 15.15"/><path class="cls-3" d="M11.6,15.92a.2.2,0,0,1-.16-.07l-.52-.55a.22.22,0,0,1,0-.31l.52-.53a.22.22,0,0,1,.31,0l.6.53a.21.21,0,0,1,.08.17.24.24,0,0,1-.07.16l-.61.56A.21.21,0,0,1,11.6,15.92Zm-.21-.77.22.24.27-.24-.27-.23Z"/><polygon class="cls-2" points="11.6 14.61 10.54 15.7 9.47 14.61 9.99 13.92 11.6 14.61"/><path class="cls-3" d="M10.54,15.92a.23.23,0,0,1-.16-.06L9.31,14.77a.24.24,0,0,1,0-.29l.52-.69a.22.22,0,0,1,.27-.08l1.61.7a.26.26,0,0,1,.13.16.24.24,0,0,1-.06.2L10.7,15.86A.25.25,0,0,1,10.54,15.92Zm-.78-1.33.78.79.68-.69-1.16-.5Z"/><polygon class="cls-2" points="11.6 14.61 12.66 15.7 13.73 14.61 13.21 13.92 11.6 14.61"/><path class="cls-3" d="M12.66,15.92a.25.25,0,0,1-.16-.06l-1.06-1.09a.24.24,0,0,1-.06-.2.23.23,0,0,1,.13-.16l1.61-.7a.22.22,0,0,1,.27.08l.51.69a.23.23,0,0,1,0,.29l-1.07,1.09A.23.23,0,0,1,12.66,15.92ZM12,14.69l.68.69.78-.79-.3-.4Z"/></svg>