<svg id="Capa_1" data-name="Capa 1" xmlns="http://www.w3.org/2000/svg" viewBox="0 0 23.97 23.97"><defs><style>.cls-1{fill:#2d6fb5;}.cls-2{fill:#fff;}</style></defs><rect class="cls-1" width="23.97" height="23.97" rx="3.22"/><path class="cls-2" d="M17.62,10.36h-4.4V4.81H6.9V16.08H3.72v.42H20v-.42H17.62ZM12.8,15.9H7.32V5.23H12.8Zm4.4,0H13.29V10.78H17.2Z"/><path class="cls-2" d="M9.77,6.4H8.41V7.56H9.77Zm-.21.95H8.62V6.61h.94Z"/><path class="cls-2" d="M11.71,6.4H10.36V7.56h1.35Zm-.21.95h-.93V6.61h.93Z"/><path class="cls-2" d="M11.71,7.91H10.36V9.07h1.35Zm-.21.95h-.93V8.12h.93Z"/><path class="cls-2" d="M11.71,10.58H10.36v1.16h1.35Zm-.21.95h-.93v-.74h.93Z"/><path class="cls-2" d="M11.71,13.23H10.36v1.16h1.35Zm-.21.95h-.93v-.74h.93Z"/><path class="cls-2" d="M9.77,13.23H8.41v1.16H9.77Zm-.21.95H8.62v-.74h.94Z"/><path class="cls-2" d="M15.16,11.23H13.81v1.16h1.35Zm-.21.95H14v-.74H15Z"/><path class="cls-2" d="M16.86,13.11H15.51v1.16h1.35Zm-.21,1h-.93v-.74h.93Z"/></svg>